<?xml version="1.0" standalone="no"?>
<!DOCTYPE svg PUBLIC "-//W3C//DTD SVG 20010904//EN"
 "http://www.w3.org/TR/2001/REC-SVG-20010904/DTD/svg10.dtd">
<svg version="1.0" xmlns="http://www.w3.org/2000/svg"
 width="549.000000pt" height="549.000000pt" viewBox="0 0 549.000000 549.000000"
 preserveAspectRatio="xMidYMid meet">
<metadata>
Created by potrace 1.14, written by Peter Selinger 2001-2017
</metadata>
<g transform="translate(0.000000,549.000000) scale(0.100000,-0.100000)"
fill="#000000" stroke="none">
<path d="M2530 5097 c-3 -3 -36 -8 -75 -11 -82 -7 -114 -12 -215 -33 -923
-188 -1641 -925 -1805 -1853 -26 -144 -30 -208 -29 -425 0 -170 4 -236 23
-345 79 -471 289 -891 615 -1230 611 -635 1528 -864 2371 -593 607 196 1110
646 1383 1239 38 83 125 327 136 384 3 14 12 59 21 100 9 41 18 91 21 110 2
19 6 49 8 65 30 205 24 464 -15 685 -16 96 -18 106 -44 203 -22 85 -39 134
-103 305 -52 137 -201 385 -322 537 -81 101 -273 294 -365 366 -240 188 -475
311 -761 399 -96 30 -291 73 -384 85 -57 7 -454 17 -460 12z m270 -1311 c207
-17 424 -115 584 -266 213 -201 319 -455 311 -749 -4 -128 -6 -144 -36 -246
-67 -233 -203 -419 -404 -554 -69 -47 -94 -60 -190 -101 -137 -59 -368 -83
-525 -55 -398 71 -704 354 -804 741 -103 402 68 841 418 1069 154 100 292 148
465 162 42 3 78 7 79 9 2 1 9 1 15 -1 7 -2 46 -6 87 -9z"/>
</g>
</svg>
