<?xml version="1.0" standalone="no"?>
<!DOCTYPE svg PUBLIC "-//W3C//DTD SVG 20010904//EN"
 "http://www.w3.org/TR/2001/REC-SVG-20010904/DTD/svg10.dtd">
<svg version="1.0" xmlns="http://www.w3.org/2000/svg"
 width="256.000000pt" height="256.000000pt" viewBox="0 0 256.000000 256.000000"
 preserveAspectRatio="xMidYMid meet">
<metadata>
Created by potrace 1.14, written by Peter Selinger 2001-2017
</metadata>
<g transform="translate(0.000000,256.000000) scale(0.100000,-0.100000)"
fill="#000000" stroke="none">
<path d="M1664 2036 c-120 -38 -224 -171 -224 -287 l0 -52 50 6 c127 15 242
146 257 293 6 52 5 54 -18 53 -13 0 -43 -6 -65 -13z"/>
<path d="M1558 1658 l-98 -33 0 -507 0 -508 26 0 c15 0 69 -14 121 -30 51 -17
104 -30 116 -30 47 0 127 51 178 114 49 60 149 245 149 276 0 8 -20 28 -45 43
-172 109 -196 357 -48 505 29 29 53 57 53 61 0 5 -21 27 -46 51 -66 61 -123
83 -224 87 -75 3 -97 -1 -182 -29z"/>
<path d="M593 1658 c-30 -34 -36 -63 -19 -96 21 -41 61 -52 189 -52 l111 0 52
55 c34 35 76 66 116 85 l63 30 -246 0 c-242 0 -246 0 -266 -22z"/>
<path d="M414 1490 c-28 -11 -54 -48 -54 -78 0 -13 13 -37 29 -53 l29 -29 201
0 c185 0 201 1 201 18 1 15 25 89 45 135 7 16 -7 17 -211 16 -121 0 -229 -4
-240 -9z"/>
<path d="M283 1278 c-28 -32 -34 -53 -22 -85 19 -55 32 -58 298 -61 134 -2
247 0 251 5 4 4 5 43 2 86 l-4 77 -252 0 c-249 0 -253 0 -273 -22z"/>
<path d="M405 1103 c-63 -15 -88 -98 -42 -141 23 -21 31 -22 264 -22 l240 0
-20 73 c-11 39 -21 78 -23 85 -3 9 -51 12 -201 11 -109 -1 -207 -3 -218 -6z"/>
<path d="M455 886 c-27 -27 -32 -64 -14 -98 22 -41 64 -48 304 -48 l225 0 -45
83 -44 82 -201 3 -200 2 -25 -24z"/>
<path d="M705 708 c-30 -16 -45 -39 -45 -69 0 -83 21 -89 297 -89 l228 0 -43
21 c-24 12 -69 50 -100 85 l-57 64 -130 0 c-75 0 -139 -5 -150 -12z"/>
</g>
</svg>
